<?xml version="1.0" encoding="utf-8"?>
<!-- Generator: Adobe Illustrator 24.3.0, SVG Export Plug-In . SVG Version: 6.00 Build 0)  -->
<svg version="1.1" id="Layer_1" xmlns="http://www.w3.org/2000/svg" xmlns:xlink="http://www.w3.org/1999/xlink" x="0px" y="0px"
	 viewBox="0 0 2040.9 623.6" style="enable-background:new 0 0 2040.9 623.6;" xml:space="preserve">
<style type="text/css">
	.st0{fill:#19AD00;}
</style>
<path class="st0" d="M21.57,315.13c-1.11,49.03,9.81,95.16,30.31,136.17c3.34,6.69,12.48,8.02,17.61,2.67L228.16,295.3l-68.2-68.42
	c-2.45-2.45-2.9-6.69-0.89-10.7c2.01-3.79,6.02-6.69,10.03-7.35l282.36-34.77c2.67-0.22,5.13,0.45,6.69,2.01
	c1.56,1.56,2.45,4.01,2.01,6.69l-34.54,282.59c-0.45,4.01-3.34,8.02-7.35,10.03c-3.79,2.01-8.02,1.56-10.7-0.89L339.6,406.5
	L180.92,565.18c-5.35,5.35-4.01,14.26,2.67,17.61c40.56,20.06,86.25,31.2,134.83,30.09c157.12-3.12,285.93-135.05,285.26-292.39
	C603.24,161.13,474.43,32.1,315.08,30.76C157.74,29.42,25.36,157.79,21.57,315.13"/>
<g>
	<path d="M836.79,244.36c-31.84,0-60.52,7.27-85.36,21.82c-24.84,14.41-44.33,35.27-57.92,62.03
		c-13.45,26.62-20.31,57.09-20.31,90.72v8.37c0,50.23,16.33,91.13,48.45,121.46c32.11,30.33,74.25,45.7,125.3,45.7
		c28.96,0,55.58-5.35,79.46-16.06c23.88-10.7,43.09-25.8,57.23-45.01c0.96-1.37,0.82-3.16-0.27-4.39l-45.01-48.58
		c-0.69-0.82-1.78-1.24-2.88-1.24s-2.06,0.55-2.74,1.37c-19.08,23.61-45.84,35.55-79.74,35.55c-21.68,0-39.94-6.31-54.07-18.66
		c-13.18-11.53-21.55-26.9-24.98-45.7h213.82c2.06,0,3.71-1.65,3.71-3.57v-36.09c0-53.11-13.86-94.7-41.31-123.79
		C922.7,259.04,884.55,244.36,836.79,244.36z M836.52,322.72c18.25,0,32.53,5.08,42.27,14.96c9.88,10.02,15.1,24.57,15.51,43.09
		v3.43H775.03c3.29-19.35,10.02-34.45,20.17-45.01C805.77,328.07,819.36,322.72,836.52,322.72z"/>
	<path d="M1225.46,244.36c-38.98,0-70.95,13.04-95.38,38.98l-2.2-29.51c-0.14-1.92-1.78-3.29-3.71-3.29h-86.19
		c-2.06,0-3.71,1.65-3.71,3.57v330.75c0,1.92,1.65,3.57,3.71,3.57h91.54c2.06,0,3.71-1.65,3.71-3.57V352.5
		c12.21-19.63,30.06-29.23,54.21-29.23c18.53,0,31.7,3.84,39.39,11.53c7.69,7.69,11.67,20.59,11.67,38.29v211.49
		c0,1.92,1.65,3.57,3.71,3.57h91.54c2.06,0,3.71-1.65,3.71-3.57V371.03c-0.41-41.58-9.88-73.42-28.13-94.56
		C1290.92,255.2,1262.65,244.36,1225.46,244.36z"/>
	<path d="M1576.93,392.16l122.01-135.87c0.96-1.1,1.24-2.61,0.55-3.84c-0.55-1.24-1.92-2.06-3.43-2.06h-109.93
		c-1.1,0-2.06,0.41-2.88,1.24l-87.7,99.36l-0.14,0.14l-11.12,13.72V115.21c0-1.92-1.65-3.57-3.71-3.57h-91.54
		c-2.06,0-3.71,1.65-3.71,3.57v469.5c0,1.92,1.65,3.57,3.71,3.57h91.54c2.06,0,3.71-1.65,3.71-3.57v-99.36l28.55-27.59l85.5,128.87
		c0.69,0.96,1.92,1.65,3.16,1.65h105.13c1.37,0,2.61-0.69,3.29-1.92c0.69-1.24,0.55-2.61-0.14-3.71L1576.93,392.16z"/>
	<path d="M2035.45,399.99v-0.14c-3.43-47.62-20.31-85.78-50.09-113.64c-29.78-27.86-68.76-42-115.83-42
		c-33.08,0-62.44,7.27-87.56,21.55c-25.12,14.41-44.6,34.86-57.92,61.07c-13.31,26.08-20.04,56.13-20.04,89.34v3.98
		c0,53.25,15.23,96.07,45.15,127.22c30.06,31.15,70.68,46.94,121.05,46.94c50.23,0,90.85-15.92,120.77-47.21
		c29.92-31.15,45.01-73.15,45.01-124.61L2035.45,399.99z M1820.67,346.46c11.67-15.92,27.59-23.74,48.86-23.74
		c21.55,0,37.74,7.82,49.54,23.88c11.94,16.19,17.98,39.66,17.98,69.58c0,35.13-6.04,60.93-17.98,76.72
		c-11.8,15.65-27.86,23.19-48.99,23.19c-21.68,0-37.88-7.69-49.54-23.47c-11.67-15.92-17.7-39.53-17.7-69.99
		C1802.97,388.18,1809,362.52,1820.67,346.46z"/>
</g>
</svg>
